0.16m3min_grf.mot
version=1
nRows=17
nColumns 19
inDegrees=yes
endheader
time	1_ground_force_vx	1_ground_force_vy	1_ground_force_vz	1_ground_force_px	1_ground_force_py	1_ground_force_pz	1_ground_torque_x	1_ground_torque_y	1_ground_torque_z	2_ground_force_vx	2_ground_force_vy	2_ground_force_vz	2_ground_force_px	2_ground_force_py	2_ground_force_pz	2_ground_torque_x	2_ground_torque_y	2_ground_torque_z
            1.253500	            6.088202	          608.076682	          -48.630330	           -0.292297	            0.006202	           -0.402928	            0.021350	            2.132343	           -0.170532	           27.554370	          653.821576	           57.554881	           -0.292186	            0.005187	           -0.629834	            0.095660	            2.269857	            0.199812
            1.254000	            5.948254	          613.847516	          -49.155525	           -0.292196	            0.006203	           -0.403195	            0.021909	            2.260944	           -0.181051	           29.307622	          661.376526	           58.050345	           -0.292404	            0.005186	           -0.629801	            0.097753	            2.205973	            0.193623
            1.254500	            5.580376	          619.435848	          -49.176505	           -0.292436	            0.006203	           -0.403134	            0.021428	            2.378526	           -0.188829	           31.109154	          668.562283	           58.779115	           -0.292647	            0.005185	           -0.629686	            0.097925	            2.104486	            0.185024
            1.255000	            5.395496	          625.205100	          -49.334739	           -0.292355	            0.006203	           -0.403101	            0.020587	            2.385544	           -0.188243	           32.672434	          676.852449	           59.464998	           -0.292691	            0.005187	           -0.630372	            0.102826	            2.130177	            0.187147
            1.255500	            5.163766	          630.255247	          -49.954510	           -0.292495	            0.006204	           -0.403478	            0.019577	            2.389491	           -0.189393	           33.819504	          683.666842	           60.427374	           -0.292984	            0.005185	           -0.630050	            0.110413	            2.232009	            0.197281
            1.256000	            4.748745	          635.485458	          -50.527200	           -0.292300	            0.006205	           -0.403540	            0.017931	            2.399587	           -0.190790	           35.532088	          689.562500	           61.386224	           -0.293371	            0.005182	           -0.629657	            0.115812	            2.247533	            0.200080
            1.256500	            4.425311	          641.256454	          -51.097792	           -0.292439	            0.006204	           -0.403474	            0.016395	            2.375678	           -0.189303	           37.006461	          696.561989	           62.396045	           -0.293583	            0.005181	           -0.629697	            0.124977	            2.352399	            0.210721
            1.257000	            4.423901	          646.484975	          -51.258800	           -0.292232	            0.006204	           -0.403445	            0.017392	            2.541644	           -0.201523	           38.569885	          704.850862	           63.410425	           -0.293663	            0.005182	           -0.630119	            0.127463	            2.329335	            0.209554
            1.257500	            4.468155	          652.074173	          -51.464235	           -0.292408	            0.006204	           -0.403481	            0.018002	            2.627113	           -0.207342	           39.674549	          710.377713	           63.898940	           -0.293999	            0.005180	           -0.629879	            0.126129	            2.258347	            0.203140
            1.258000	            4.649955	          656.942530	          -51.718956	           -0.292520	            0.006205	           -0.403624	            0.019278	            2.723647	           -0.214424	           41.194321	          717.746779	           64.628486	           -0.294036	            0.005181	           -0.630063	            0.124017	            2.160810	            0.194567
            1.258500	            4.924712	          661.087999	          -51.518436	           -0.292445	            0.006207	           -0.404041	            0.020499	            2.751749	           -0.214443	           41.962432	          725.666001	           65.219538	           -0.294256	            0.005181	           -0.630230	            0.130686	            2.259991	            0.203118
            1.259000	            5.060993	          666.676624	          -51.586528	           -0.292504	            0.006205	           -0.403753	            0.021099	            2.779370	           -0.215064	           43.065164	          731.744711	           65.850808	           -0.294304	            0.005180	           -0.630019	            0.131038	            2.226550	            0.200371
            1.259500	            4.876049	          671.544911	          -51.840338	           -0.292571	            0.006206	           -0.403924	            0.019798	            2.726605	           -0.210482	           43.934379	          737.637993	           66.622305	           -0.294660	            0.005178	           -0.630008	            0.136238	            2.287374	            0.206592
            1.260000	            4.738216	          676.951736	          -51.541672	           -0.292467	            0.006207	           -0.404048	            0.019374	            2.768006	           -0.210750	           44.469575	          745.188089	           67.212143	           -0.294672	            0.005179	           -0.630196	            0.143280	            2.400981	            0.216556
            1.260500	            4.782245	          681.279891	          -51.935934	           -0.292576	            0.006207	           -0.404228	            0.020022	            2.852318	           -0.217440	           45.102558	          751.632841	           68.032646	           -0.294857	            0.005178	           -0.630196	            0.139728	            2.328563	            0.210766
            1.261000	            4.369012	          686.687130	          -51.774158	           -0.292454	            0.006207	           -0.404002	            0.018890	            2.968996	           -0.223853	           45.222208	          757.523082	           68.898318	           -0.294939	            0.005177	           -0.629947	            0.137055	            2.295832	            0.208811
            1.261500	            4.413706	          691.734971	          -51.844340	           -0.292637	            0.006207	           -0.404221	            0.019565	            3.066234	           -0.229809	           45.571936	          764.520642	           69.345473	           -0.294991	            0.005178	           -0.630176	            0.129483	            2.172220	            0.197030
